HIERARCHY
ROOT hip
{
  OFFSET 0 0 0
  CHANNELS 6 Xposition Yposition Zposition Zrotation Yrotation Xrotation
  JOINT abdomen
  {
    OFFSET 0 20.6881 -0.73152
    CHANNELS 3 Zrotation Xrotation Yrotation
    JOINT chest
    {
      OFFSET 0 11.7043 -0.48768
      CHANNELS 3 Zrotation Xrotation Yrotation
      JOINT neck
      {
        OFFSET 0 22.1894 -2.19456
        CHANNELS 3 Zrotation Xrotation Yrotation
        JOINT head
        {
          OFFSET -0.24384 7.07133 1.2192
          CHANNELS 3 Zrotation Xrotation Yrotation
          JOINT leftEye
          {
            OFFSET 4.14528 8.04674 8.04672
            CHANNELS 3 Zrotation Xrotation Yrotation
            End Site
            {
              OFFSET 1 0 0
            }
          }
          JOINT rightEye
          {
            OFFSET -3.6576 8.04674 8.04672
            CHANNELS 3 Zrotation Xrotation Yrotation
            End Site
            {
              OFFSET 1 0 0
            }
          }
        }
      }
      JOINT rCollar
      {
        OFFSET -2.68224 19.2634 -4.8768
        CHANNELS 3 Zrotation Xrotation Yrotation
        JOINT rShldr
        {
          OFFSET -8.77824 -1.95073 1.46304
          CHANNELS 3 Zrotation Xrotation Yrotation
          JOINT rForeArm
          {
            OFFSET -28.1742 -1.7115 0.48768
            CHANNELS 3 Zrotation Xrotation Yrotation
            JOINT rHand
            {
              OFFSET -22.5879 0.773209 7.07136
              CHANNELS 3 Zrotation Xrotation Yrotation
              JOINT rThumb1
              {
                OFFSET -1.2192 -0.487915 3.41376
                CHANNELS 3 Zrotation Xrotation Yrotation
                JOINT rThumb2
                {
                  OFFSET -3.37035 -0.52449 3.41376
                  CHANNELS 3 Zrotation Xrotation Yrotation
                  End Site
                  {
                    OFFSET -1.78271 -1.18214 1.43049
                  }
                }
              }
              JOINT rIndex1
              {
                OFFSET -7.75947 0.938293 5.60832
                CHANNELS 3 Zrotation Xrotation Yrotation
                JOINT rIndex2
                {
                  OFFSET -2.54057 -0.884171 1.56538
                  CHANNELS 3 Zrotation Xrotation Yrotation
                  End Site
                  {
                    OFFSET -1.62519 -0.234802 1.16502
                  }
                }
              }
              JOINT rMid1
              {
                OFFSET -8.24714 1.18213 3.41376
                CHANNELS 3 Zrotation Xrotation Yrotation
                JOINT rMid2
                {
                  OFFSET -3.10165 -0.590103 1.0647
                  CHANNELS 3 Zrotation Xrotation Yrotation
                  End Site
                  {
                    OFFSET -2.48547 -0.328903 0.83742
                  }
                }
              }
              JOINT rRing1
              {
                OFFSET -8.82822 0.546677 1.51678
                CHANNELS 3 Zrotation Xrotation Yrotation
                JOINT rRing2
                {
                  OFFSET -2.60934 -0.819778 -0.0198488
                  CHANNELS 3 Zrotation Xrotation Yrotation
                  End Site
                  {
                    OFFSET -2.33842 -0.294052 0.168128
                  }
                }
              }
              JOINT rPinky1
              {
                OFFSET -8.27202 -0.0477905 -0.4584
                CHANNELS 3 Zrotation Xrotation Yrotation
                JOINT rPinky2
                {
                  OFFSET -1.82734 -0.647385 -0.700984
                  CHANNELS 3 Zrotation Xrotation Yrotation
                  End Site
                  {
                    OFFSET -1.69225 -0.51767 -0.607171
                  }
                }
              }
            }
          }
        }
      }
      JOINT lCollar
      {
        OFFSET 2.68224 19.2634 -4.8768
        CHANNELS 3 Zrotation Xrotation Yrotation
        JOINT lShldr
        {
          OFFSET 8.77824 -1.95073 1.46304
          CHANNELS 3 Zrotation Xrotation Yrotation
          JOINT lForeArm
          {
            OFFSET 28.1742 -1.7115 0.48768
            CHANNELS 3 Zrotation Xrotation Yrotation
            JOINT lHand
            {
              OFFSET 22.5879 0.773209 7.07136
              CHANNELS 3 Zrotation Xrotation Yrotation
              JOINT lThumb1
              {
                OFFSET 1.2192 -0.487915 3.41376
                CHANNELS 3 Zrotation Xrotation Yrotation
                JOINT lThumb2
                {
                  OFFSET 3.37035 -0.52449 3.41376
                  CHANNELS 3 Zrotation Xrotation Yrotation
                  End Site
                  {
                    OFFSET 1.78271 -1.18214 1.43049
                  }
                }
              }
              JOINT lIndex1
              {
                OFFSET 7.75947 0.938293 5.60832
                CHANNELS 3 Zrotation Xrotation Yrotation
                JOINT lIndex2
                {
                  OFFSET 2.54057 -0.884171 1.56538
                  CHANNELS 3 Zrotation Xrotation Yrotation
                  End Site
                  {
                    OFFSET 1.62519 -0.234802 1.16502
                  }
                }
              }
              JOINT lMid1
              {
                OFFSET 8.24714 1.18213 3.41376
                CHANNELS 3 Zrotation Xrotation Yrotation
                JOINT lMid2
                {
                  OFFSET 3.10165 -0.590103 1.0647
                  CHANNELS 3 Zrotation Xrotation Yrotation
                  End Site
                  {
                    OFFSET 2.48547 -0.328903 0.83742
                  }
                }
              }
              JOINT lRing1
              {
                OFFSET 8.82822 0.546677 1.51678
                CHANNELS 3 Zrotation Xrotation Yrotation
                JOINT lRing2
                {
                  OFFSET 2.60934 -0.819778 -0.0198488
                  CHANNELS 3 Zrotation Xrotation Yrotation
                  End Site
                  {
                    OFFSET 2.33842 -0.294052 0.168128
                  }
                }
              }
              JOINT lPinky1
              {
                OFFSET 8.27202 -0.0477905 -0.4584
                CHANNELS 3 Zrotation Xrotation Yrotation
                JOINT lPinky2
                {
                  OFFSET 1.82734 -0.647385 -0.700984
                  CHANNELS 3 Zrotation Xrotation Yrotation
                  End Site
                  {
                    OFFSET 1.69225 -0.51767 -0.607171
                  }
                }
              }
            }
          }
        }
      }
    }
  }
  JOINT rButtock
  {
    OFFSET -8.77824 4.35084 1.2192
    CHANNELS 3 Zrotation Xrotation Yrotation
    JOINT rThigh
    {
      OFFSET 0 -1.70687 -2.19456
      CHANNELS 3 Zrotation Xrotation Yrotation
      JOINT rShin
      {
        OFFSET 0 -36.8199 0.73152
        CHANNELS 3 Zrotation Xrotation Yrotation
        JOINT rFoot
        {
          OFFSET 0.73152 -45.1104 -5.12064
          CHANNELS 3 Zrotation Xrotation Yrotation
          End Site
          {
            OFFSET -1.1221 -3.69964 12.103
          }
        }
      }
    }
  }
  JOINT lButtock
  {
    OFFSET 8.77824 4.35084 1.2192
    CHANNELS 3 Zrotation Xrotation Yrotation
    JOINT lThigh
    {
      OFFSET 0 -1.70687 -2.19456
      CHANNELS 3 Zrotation Xrotation Yrotation
      JOINT lShin
      {
        OFFSET 0 -36.8199 0.73152
        CHANNELS 3 Zrotation Xrotation Yrotation
        JOINT lFoot
        {
          OFFSET -0.73152 -45.1104 -5.12064
          CHANNELS 3 Zrotation Xrotation Yrotation
          End Site
          {
            OFFSET 1.1221 -3.69964 12.103
          }
        }
      }
    }
  }
}
MOTION
Frames:	4
Frame Time:	0.00833333
7.9228000000000005 83.6463 10.8324 172.216106 -3.248982 -153.926117 -9.957507 -35.168049 -6.114996 3.717011 8.148569 -25.997879 -8.238471 25.674977 -136.107338 9.555944 21.26234 120.822158 -0.000203 0.0 -0.002465 -0.000397 -0.0 0.001959 -155.503586 -3.514579 161.838506 6.464534 0.111197 3.268764 -140.794725 -86.612777 60.873651 94.854965 -60.489087 96.121267 -176.296484 -13.919391 89.718413 136.358153 -55.620103 97.795779 -0.32872 0.529762 0.1851 2.31969 12.494717 2.29537 -82.84113 61.111003 74.532012 5.375683 -5.831991 -0.51406 -145.119052 0.184838 -179.188031 11.198208 13.761002 -7.37398 0.099257 0.258296 0.090766 -147.846997 13.362082 -144.096686 142.974592 39.431748 -147.39016 98.516492 29.86677 -61.286622 -82.855698 -51.803733 82.225249 154.374182 43.317504 -128.321996 -88.928386 -50.831298 -37.599668 14.149735 -71.547525 43.952925 -112.657544 -76.28484 -61.489539 176.052304 -44.147409 -110.273651 -23.904338 -61.333726 -1.400852 -7.329861 -13.070044 1.152305 -0.000288 0.022412 -0.008476 154.174307 -65.019345 178.243417 118.626443 -35.450606 116.546449 147.366197 13.86772 142.668101 -0.00017 -0.001591 -4.3e-05 -2.37294 -34.378047 -1.379326 -4.152341 38.055288 148.825029 -160.032789 -14.344166 139.7769 0.000199 0.000825 -0.000256 18.429444 -58.754044 -54.400847 -43.620899 26.979841 162.793323 -155.163872 -12.554203 101.425179
6.521299999999999 83.8412 9.7074 172.441045 -1.182803 -154.503102 -8.908727 -34.401575 -5.368657 3.133914 7.40494 -25.548554 -12.741335 18.842151 -85.974836 16.20513 11.317482 70.966288 0.002344 -0.0 -0.000489 0.002344 -0.0 -0.000489 -14.148014 43.061567 15.99659 -25.976532 57.34265 43.819096 -10.5148 -11.744285 -158.287002 66.039935 -58.566103 67.548939 6.462766 -6.453047 -0.634906 -99.586501 17.982169 89.903832 -16.730489 21.793044 11.470578 -5.206842 18.521822 4.184838 173.125044 -66.297973 137.615359 -159.384136 7.011236 141.417201 -0.006149 3.559364 1.117371 -141.293559 -81.292282 -163.406938 7.92801 24.81177 7.001595 9.508179 24.295988 5.710982 -3.737035 -33.150908 6.413504 -74.346689 19.307465 31.919744 3.636809 -2.321421 -111.455994 6.550277 -8.179939 3.420464 67.033751 37.763171 -34.64416 45.7985 3.057118 -46.999779 123.870401 22.78757 -104.454367 -45.257776 -54.573105 -4.008029 -6.53414 -20.414775 2.717543 5.030426 21.306576 -4.422049 -0.004714 1.687555 -0.530007 156.250784 -13.740109 -173.482255 145.173766 12.067458 141.823107 127.303078 -28.801598 124.7599 -0.00042 -0.000784 0.00054 -4.073793 -35.298253 172.973411 4.76274 -32.301237 -92.668307 160.33749 -55.31558 64.457079 -0.003122 -0.000783 -0.001561 15.3605 -59.378814 180.0 3.078883 -39.182504 164.748233 -97.936145 -28.205572 7.85595
5.1335 83.9363 8.533 172.512105 0.612197 -155.388902 -7.758299 -33.098335 -4.526605 2.410719 6.484172 -25.015166 -12.351202 16.476764 -70.82579 16.475161 7.159289 55.802154 -0.003481 0.0 -0.002333 -0.003481 0.0 -0.002333 -29.826821 58.184764 32.231956 35.213867 -42.385259 30.650399 -8.344124 69.235725 -143.857949 100.558018 -60.077317 100.544473 114.538327 -50.244878 55.721702 -171.626333 -39.482188 128.102995 10.210463 -18.050879 -4.565166 -162.383824 -18.013867 110.45104 -0.969202 2.779571 0.553777 -1.296519 12.641519 2.16584 -145.110573 -0.627403 -178.931696 -154.349103 71.873573 169.598355 32.016759 83.320813 6.227669 -160.799542 52.413977 -148.356419 14.148673 43.061435 -15.996945 18.702981 48.566401 -94.352545 155.031913 -58.916505 50.340075 4.843217 -13.886694 3.802969 105.911309 35.684402 -61.956138 -26.173444 -33.975366 -25.117552 -88.792447 -75.498574 -40.049089 -21.467716 -8.538006 7.00242 167.374635 -28.008483 -145.269682 2.784226 15.815092 -3.299795 0.005558 3.475535 -1.093127 156.809259 -27.654724 -175.095302 -4.053026 11.638634 -3.6762 -1.181532 -2.923568 0.934544 -0.0 -0.00113 -0.000113 -4.502906 -31.697653 -38.585438 -23.515198 13.953613 36.044653 105.672862 10.390875 -1.047007 4.1e-05 -0.000657 -5.3e-05 13.275011 -55.695006 15.939976 22.717892 39.923063 100.59639 46.392895 47.575323 -154.626825
3.7671 83.9464 7.3536 172.576993 2.319108 -156.341073 -6.561664 -31.634549 -3.685907 1.679496 5.508521 -24.368911 -11.314025 21.976071 -100.86569 16.502081 14.574413 84.902091 -0.00362 -0.0 0.001496 -0.00362 -0.0 0.001496 -131.054275 54.036141 134.940438 -179.356986 -1.018833 152.812871 170.103703 47.565385 32.641873 133.295646 -49.871446 131.455664 -155.112913 6.918077 87.738501 -134.494318 2.292509 65.38025 -169.721718 -47.987957 121.305093 -131.391566 31.340642 108.111471 1.280916 -3.803181 -0.679737 3.080441 0.405387 0.027194 -145.122155 1.974277 -179.749188 11.434975 58.802415 -1.654053 -156.380579 53.733907 -150.119815 -148.974165 13.866901 -142.47444 -3.191369 -25.838815 5.075782 101.188151 -13.462449 150.100017 -4.537271 -6.244968 145.033674 175.072796 -0.574064 -142.493784 89.136135 38.427904 -50.299204 -5.893824 -19.907155 -24.372582 148.887411 -12.609496 -120.244572 175.512357 -40.262254 -116.22437 158.521658 -0.191934 -142.145987 25.566739 49.021569 -21.192412 73.62643 72.97213 -91.554213 -5.864995 0.513094 4.443789 109.126642 -42.333547 107.212463 20.132048 -37.250022 22.4031 0.000569 -0.00159 -0.000732 -6.675405 -32.36088 -180.0 13.916467 -31.335876 123.127037 46.443466 54.27978 57.532973 179.966418 75.749247 0.027631 -173.301674 20.516585 44.139441 36.657842 10.031553 8.191063 -140.447035 -54.451656 107.961205
